<?xml version="1.0" encoding="utf-8"?>
<!-- Generator: Adobe Illustrator 20.1.0, SVG Export Plug-In . SVG Version: 6.00 Build 0)  -->
<svg version="1.1" id="Layer_1" xmlns="http://www.w3.org/2000/svg" xmlns:xlink="http://www.w3.org/1999/xlink" x="0px" y="0px"
	 viewBox="0 0 32 32" style="enable-background:new 0 0 32 32;" xml:space="preserve" width="32" height="32">
<style type="text/css">
	.st0{fill:#FFFFFF;}
</style>
<g>
	<path class="st0" d="M26.7,11.4V4.6l-6.5-3.8L7.8,8v4.1l-5.3,3V22l11.8,6.8l2.3-1.3l6.5,3.8l6.5-3.8V13.1L26.7,11.4z M14.1,11.6
		L14.1,11.6L14,11.8v6.5l-5.5-3.2V8.4l11.6-6.7l5.5,3.2L14.1,11.6z M17,16.8l-2.6,1.5v-6.4l11.4-6.6v6.2l-2.7-1.6L23,9.8l-0.1,0.1
		L17,13.2l-0.1,0.1v0.1L17,16.8z M17.5,27.1l2.7-1.5h0.1v-0.1v-6.9l-2.9-1.7v-3l5.5,3.2v13.2L17.5,27.1z M28.8,27l-5.5,3.2V16.9
		v-0.1l-0.1-0.1l-5.6-3.2l5.5-3.2l5.7,3.3V27z"/>
</g>
</svg>
